<?xml version="1.0" standalone="no"?>
<!DOCTYPE svg PUBLIC "-//W3C//DTD SVG 1.1//EN" "http://www.w3.org/Graphics/SVG/1.1/DTD/svg11.dtd">
<svg width="100%" height="100%" viewBox="0 0 50 50" version="1.1" xmlns="http://www.w3.org/2000/svg" xmlns:xlink="http://www.w3.org/1999/xlink" xml:space="preserve" style="fill-rule:evenodd;clip-rule:evenodd;stroke-linecap:round;stroke-miterlimit:1.41421;">
    <g id="Layer2">
        <path d="M26.9,34.559L26.9,21.679L29.522,21.679L29.522,32.371L36.042,32.371L36.042,34.559L26.9,34.559ZM14.729,34.559L14.729,21.573L24.358,21.573L24.358,23.77L17.351,23.77L17.351,26.648L23.871,26.648L23.871,28.836L17.351,28.836L17.351,32.371L24.606,32.371L24.606,34.559L14.729,34.559ZM31.392,18.551L41.55,25L38.835,25L38.835,45.236L28.546,45.236L28.546,35.118L21.454,35.118L21.454,45.236L11.165,45.236L11.165,25L8.45,25L25,14.492L30.954,18.273L30.954,6.882L31.392,6.882C31.392,6.882 32.932,6.43 33.735,6.43C34.538,6.43 36.208,6.882 36.208,6.882L36.208,7.259C36.69,7.371 37.267,7.481 37.663,7.481C38.466,7.481 40.137,7.03 40.137,7.03L40.137,12.196C40.137,12.196 38.466,12.647 37.663,12.647C36.861,12.647 35.321,12.196 35.321,12.196L35.321,11.833C34.793,11.716 34.149,11.596 33.735,11.596C32.933,11.596 31.394,12.047 31.392,12.048L31.392,18.551Z" style="fill:white;stroke-width:0.42px;stroke:white;"/>
    </g>
</svg>
