<?xml version="1.0" standalone="no"?>
<!DOCTYPE svg PUBLIC "-//W3C//DTD SVG 1.1//EN" "http://www.w3.org/Graphics/SVG/1.1/DTD/svg11.dtd">
<svg width="100%" height="100%" viewBox="0 0 50 50" version="1.1" xmlns="http://www.w3.org/2000/svg" xmlns:xlink="http://www.w3.org/1999/xlink" xml:space="preserve" style="fill-rule:evenodd;clip-rule:evenodd;stroke-linecap:round;stroke-miterlimit:1.41421;">
    <g id="Layer2">
        <path d="M26.924,30.173L29.43,29.934C29.581,30.759 29.887,31.365 30.348,31.752C30.809,32.138 31.431,32.332 32.215,32.332C33.044,32.332 33.669,32.16 34.09,31.816C34.51,31.471 34.72,31.069 34.72,30.608C34.72,30.313 34.632,30.061 34.455,29.853C34.278,29.646 33.969,29.465 33.528,29.311C33.227,29.209 32.539,29.027 31.466,28.765C30.086,28.43 29.117,28.017 28.56,27.528C27.777,26.84 27.385,26.001 27.385,25.011C27.385,24.374 27.57,23.778 27.938,23.224C28.306,22.669 28.837,22.247 29.53,21.957C30.223,21.667 31.06,21.522 32.041,21.522C33.642,21.522 34.847,21.866 35.656,22.554C36.465,23.242 36.89,24.161 36.931,25.31L34.355,25.421C34.245,24.778 34.008,24.316 33.646,24.034C33.283,23.753 32.74,23.612 32.014,23.612C31.266,23.612 30.68,23.763 30.257,24.064C29.984,24.258 29.848,24.516 29.848,24.841C29.848,25.136 29.975,25.39 30.231,25.6C30.556,25.867 31.344,26.146 32.597,26.436C33.85,26.726 34.777,27.026 35.377,27.336C35.978,27.646 36.448,28.07 36.787,28.608C37.126,29.145 37.296,29.809 37.296,30.6C37.296,31.316 37.093,31.988 36.687,32.613C36.281,33.239 35.707,33.704 34.964,34.008C34.222,34.313 33.296,34.465 32.188,34.465C30.576,34.465 29.337,34.099 28.473,33.368C27.609,32.637 27.092,31.572 26.924,30.173ZM14.717,34.243L14.717,21.735L17.292,21.735L17.292,26.658L22.339,26.658L22.339,21.735L24.914,21.735L24.914,34.243L22.339,34.243L22.339,28.774L17.292,28.774L17.292,34.243L14.717,34.243ZM31.392,18.551L41.55,25L38.835,25L38.835,45.236L28.546,45.236L28.546,35.118L21.454,35.118L21.454,45.236L11.165,45.236L11.165,25L8.45,25L25,14.492L30.954,18.273L30.954,6.882L31.392,6.882C31.392,6.882 32.932,6.43 33.735,6.43C34.538,6.43 36.208,6.882 36.208,6.882L36.208,7.259C36.69,7.371 37.267,7.481 37.663,7.481C38.466,7.481 40.137,7.03 40.137,7.03L40.137,12.196C40.137,12.196 38.466,12.647 37.663,12.647C36.861,12.647 35.321,12.196 35.321,12.196L35.321,11.833C34.793,11.716 34.149,11.596 33.735,11.596C32.933,11.596 31.394,12.047 31.392,12.048L31.392,18.551Z" style="fill:white;stroke-width:0.42px;stroke:white;"/>
    </g>
</svg>
