<?xml version="1.0" standalone="no"?>
<!DOCTYPE svg PUBLIC "-//W3C//DTD SVG 1.1//EN" "http://www.w3.org/Graphics/SVG/1.1/DTD/svg11.dtd">
<svg width="100%" height="100%" viewBox="0 0 50 50" version="1.1" xmlns="http://www.w3.org/2000/svg" xmlns:xlink="http://www.w3.org/1999/xlink" xml:space="preserve" style="fill-rule:evenodd;clip-rule:evenodd;stroke-linecap:round;stroke-miterlimit:1.41421;">
    <g id="Layer2">
        <path d="M27.989,30.343L30.337,30.115C30.478,30.903 30.765,31.481 31.197,31.851C31.629,32.22 32.211,32.405 32.945,32.405C33.722,32.405 34.308,32.241 34.702,31.912C35.096,31.583 35.293,31.199 35.293,30.759C35.293,30.476 35.21,30.235 35.044,30.037C34.878,29.839 34.589,29.666 34.176,29.519C33.893,29.422 33.249,29.248 32.244,28.998C30.951,28.677 30.043,28.283 29.521,27.816C28.788,27.158 28.421,26.357 28.421,25.411C28.421,24.803 28.594,24.233 28.939,23.703C29.284,23.174 29.781,22.77 30.43,22.493C31.08,22.216 31.864,22.077 32.782,22.077C34.282,22.077 35.411,22.406 36.169,23.064C36.927,23.721 37.325,24.599 37.363,25.696L34.95,25.802C34.847,25.188 34.626,24.747 34.286,24.478C33.946,24.209 33.437,24.074 32.758,24.074C32.057,24.074 31.508,24.218 31.111,24.506C30.856,24.691 30.728,24.938 30.728,25.248C30.728,25.531 30.847,25.773 31.086,25.974C31.391,26.229 32.13,26.495 33.304,26.772C34.477,27.05 35.346,27.336 35.908,27.632C36.471,27.929 36.911,28.333 37.229,28.847C37.546,29.361 37.705,29.995 37.705,30.75C37.705,31.435 37.515,32.076 37.135,32.674C36.754,33.272 36.216,33.716 35.521,34.007C34.825,34.298 33.959,34.443 32.921,34.443C31.41,34.443 30.25,34.094 29.44,33.395C28.63,32.697 28.147,31.68 27.989,30.343ZM14.661,34.231L14.661,22.281L18.272,22.281L20.441,30.432L22.585,22.281L26.204,22.281L26.204,34.231L23.962,34.231L23.962,24.824L21.59,34.231L19.267,34.231L16.903,24.824L16.903,34.231L14.661,34.231ZM31.392,18.551L41.55,25L38.835,25L38.835,45.236L28.546,45.236L28.546,35.118L21.454,35.118L21.454,45.236L11.165,45.236L11.165,25L8.45,25L25,14.492L30.954,18.273L30.954,6.882L31.392,6.882C31.392,6.882 32.932,6.43 33.735,6.43C34.538,6.43 36.208,6.882 36.208,6.882L36.208,7.259C36.69,7.371 37.267,7.481 37.663,7.481C38.466,7.481 40.137,7.03 40.137,7.03L40.137,12.196C40.137,12.196 38.466,12.647 37.663,12.647C36.861,12.647 35.321,12.196 35.321,12.196L35.321,11.833C34.793,11.716 34.149,11.596 33.735,11.596C32.933,11.596 31.394,12.047 31.392,12.048L31.392,18.551Z" style="fill:white;stroke-width:0.42px;stroke:white;"/>
    </g>
</svg>
