<?xml version="1.0" standalone="no"?>
<!DOCTYPE svg PUBLIC "-//W3C//DTD SVG 1.1//EN" "http://www.w3.org/Graphics/SVG/1.1/DTD/svg11.dtd">
<svg width="100%" height="100%" viewBox="0 0 50 50" version="1.1" xmlns="http://www.w3.org/2000/svg" xmlns:xlink="http://www.w3.org/1999/xlink" xml:space="preserve" style="fill-rule:evenodd;clip-rule:evenodd;stroke-linecap:round;stroke-miterlimit:1.41421;">
    <g id="Layer2">
        <path d="M25.94,30.173L28.446,29.934C28.597,30.759 28.903,31.365 29.364,31.752C29.825,32.138 30.448,32.332 31.231,32.332C32.06,32.332 32.685,32.16 33.106,31.816C33.526,31.471 33.737,31.069 33.737,30.608C33.737,30.313 33.648,30.061 33.471,29.853C33.294,29.646 32.985,29.465 32.545,29.311C32.243,29.209 31.556,29.027 30.482,28.765C29.102,28.43 28.133,28.017 27.576,27.528C26.793,26.84 26.402,26.001 26.402,25.011C26.402,24.374 26.586,23.778 26.954,23.224C27.322,22.669 27.853,22.247 28.546,21.957C29.24,21.667 30.076,21.522 31.057,21.522C32.658,21.522 33.863,21.866 34.672,22.554C35.481,23.242 35.906,24.161 35.947,25.31L33.371,25.421C33.261,24.778 33.025,24.316 32.662,24.034C32.299,23.753 31.756,23.612 31.031,23.612C30.282,23.612 29.696,23.763 29.273,24.064C29,24.258 28.864,24.516 28.864,24.841C28.864,25.136 28.992,25.39 29.247,25.6C29.572,25.867 30.361,26.146 31.614,26.436C32.867,26.726 33.793,27.026 34.394,27.336C34.994,27.646 35.464,28.07 35.803,28.608C36.143,29.145 36.312,29.809 36.312,30.6C36.312,31.316 36.109,31.988 35.703,32.613C35.297,33.239 34.723,33.704 33.98,34.008C33.238,34.313 32.313,34.465 31.205,34.465C29.592,34.465 28.354,34.099 27.489,33.368C26.625,32.637 26.109,31.572 25.94,30.173ZM18.579,34.243L18.579,23.851L14.794,23.851L14.794,21.735L24.931,21.735L24.931,23.851L21.155,23.851L21.155,34.243L18.579,34.243ZM31.392,18.551L41.55,25L38.835,25L38.835,45.236L28.546,45.236L28.546,35.118L21.454,35.118L21.454,45.236L11.165,45.236L11.165,25L8.45,25L25,14.492L30.954,18.273L30.954,6.882L31.392,6.882C31.392,6.882 32.932,6.43 33.735,6.43C34.538,6.43 36.208,6.882 36.208,6.882L36.208,7.259C36.69,7.371 37.267,7.481 37.663,7.481C38.466,7.481 40.137,7.03 40.137,7.03L40.137,12.196C40.137,12.196 38.466,12.647 37.663,12.647C36.861,12.647 35.321,12.196 35.321,12.196L35.321,11.833C34.793,11.716 34.149,11.596 33.735,11.596C32.933,11.596 31.394,12.047 31.392,12.048L31.392,18.551Z" style="fill:white;stroke-width:0.42px;stroke:white;"/>
    </g>
</svg>
