<?xml version="1.0" standalone="no"?>
<!DOCTYPE svg PUBLIC "-//W3C//DTD SVG 1.1//EN" "http://www.w3.org/Graphics/SVG/1.1/DTD/svg11.dtd">
<svg width="100%" height="100%" viewBox="0 0 400 400" version="1.1" xmlns="http://www.w3.org/2000/svg" xmlns:xlink="http://www.w3.org/1999/xlink" xml:space="preserve" style="fill-rule:evenodd;clip-rule:evenodd;stroke-linejoin:round;stroke-miterlimit:1.41421;">
    <g id="Layer1">
        <g id="Layer4">
            <g>
                <path d="M213.3,161.532L225.438,161.532L225.438,244.033L270.817,244.033L270.817,255.191L213.3,255.191L213.3,161.532ZM131.143,161.532L196.466,161.532L196.466,173.008L142.976,173.008L142.976,201.444L192.441,201.444L192.441,212.283L142.976,212.283L142.976,244.033L197.381,244.033L197.381,255.191L131.143,255.191L131.143,161.532ZM226.687,391.774L226.687,289.588L162.835,289.588L162.835,391.774M260.36,119.603L359.593,194.553C362.002,196.843 362.869,197.278 364.405,200.299C364.975,201.42 365.42,202.613 365.723,203.833C366.026,205.053 366.192,206.316 366.213,207.573C366.234,208.83 366.111,210.098 365.849,211.327C365.587,212.557 365.182,213.764 364.65,214.904C363.579,217.197 362,219.216 360.033,220.808C359.056,221.599 357.982,222.283 356.852,222.834C353.805,224.319 352.851,224.143 349.548,224.519L343.532,224.519L343.532,391.774L50.194,391.774L50.194,224.519L39.974,224.519C36.672,224.143 35.717,224.319 32.671,222.834C31.541,222.283 30.467,221.599 29.489,220.808C28.512,220.017 27.619,219.109 26.845,218.119C26.07,217.128 25.404,216.043 24.872,214.904C24.341,213.764 23.936,212.557 23.674,211.327C23.412,210.098 23.289,208.83 23.31,207.573C23.352,205.043 23.97,202.555 25.117,200.299C26.653,197.278 27.521,196.843 29.929,194.553L184.716,77.644C185.742,77.03 186.708,76.303 187.794,75.803C189.979,74.798 192.356,74.277 194.761,74.277C195.957,74.277 197.159,74.407 198.327,74.663C199.495,74.919 200.642,75.303 201.728,75.803C202.814,76.303 203.78,77.03 204.806,77.644L245.799,108.605L245.879,68.35L245.64,68.222L245.64,10.621L251.81,7.864C253.805,9.651 255.73,11.519 257.795,13.224C257.893,13.303 257.994,13.379 258.095,13.454C258.589,13.814 259.106,14.143 259.631,14.455C260.289,14.844 260.962,15.205 261.646,15.546C263.411,16.427 265.242,17.174 267.102,17.832C269.965,18.846 272.903,19.647 275.869,20.3C279.34,21.065 282.854,21.626 286.383,22.038C292.604,22.764 298.875,23.029 305.135,22.989C308.884,22.964 312.631,22.832 316.37,22.55C323.451,22.016 330.496,20.985 337.428,19.443C342.137,18.395 346.797,17.113 351.364,15.556C353,14.998 354.626,14.407 356.232,13.766C357.459,13.276 358.68,12.768 359.874,12.201L360.01,12.136L366.868,8.751L370.563,11.048L370.563,67.447L367.623,69.696C366.729,70.362 365.775,70.946 364.804,71.492C363.487,72.234 362.127,72.902 360.747,73.519C358.928,74.331 357.07,75.054 355.19,75.71C353.095,76.441 350.971,77.088 348.83,77.668C345.402,78.596 341.93,79.355 338.435,79.983C334.497,80.692 330.529,81.236 326.549,81.652C322.87,82.037 319.179,82.311 315.485,82.494C312.932,82.621 310.376,82.711 307.82,82.74C307.406,82.743 306.993,82.745 306.579,82.746C303.52,82.744 300.462,82.651 297.408,82.454C287.522,81.815 277.695,80.138 268.17,77.409C265.572,76.664 262.995,75.841 260.449,74.931L260.36,119.603Z" style="fill:white;"/>
            </g>
        </g>
    </g>
</svg>
